<?xml version="1.0" standalone="no"?>
<!DOCTYPE svg PUBLIC "-//W3C//DTD SVG 20010904//EN"
 "http://www.w3.org/TR/2001/REC-SVG-20010904/DTD/svg10.dtd">
<svg version="1.0" xmlns="http://www.w3.org/2000/svg"
 width="300.000000pt" height="190.000000pt" viewBox="0 0 300.000000 190.000000"
 preserveAspectRatio="xMidYMid meet">

<g transform="translate(0.000000,190.000000) scale(0.100000,-0.100000)"
fill="#001154" stroke="none">
<path d="M682 1721 c-15 -9 -31 -70 -32 -116 0 -30 -3 -32 -61 -44 -193 -39
-362 -185 -432 -369 -17 -45 -33 -67 -66 -93 l-44 -34 -19 -110 c-10 -60 -20
-116 -23 -122 -7 -19 2 -16 48 15 70 47 73 47 86 -11 23 -106 104 -230 201
-310 62 -52 172 -103 253 -119 l67 -13 0 -62 c0 -43 5 -66 16 -77 37 -37 84
-4 84 60 0 72 6 79 70 92 204 42 391 223 445 427 8 32 17 61 20 64 3 3 44 -14
90 -37 46 -23 86 -38 89 -33 10 16 45 266 38 272 -4 3 -62 26 -130 49 l-122
43 -32 66 c-48 98 -155 201 -261 252 -45 22 -111 45 -145 51 l-62 12 0 61 c0
47 -4 66 -18 78 -20 19 -40 21 -60 8z m-48 -228 c-3 -16 -20 -118 -38 -228
-25 -150 -36 -201 -47 -203 -9 -1 -60 16 -115 38 -70 29 -120 42 -171 47 l-71
6 19 45 c48 112 166 234 269 279 53 23 112 42 137 42 19 1 22 -3 17 -26z m229
12 c78 -23 162 -73 221 -131 54 -53 114 -140 103 -150 -3 -3 -29 2 -58 10
-103 31 -188 17 -241 -40 -24 -27 -30 -52 -72 -304 -26 -151 -48 -282 -50
-290 -2 -8 -4 195 -5 453 l-1 467 28 0 c15 0 49 -7 75 -15z m-203 -590 l0
-465 -28 0 c-32 0 -119 28 -173 55 -134 68 -258 229 -276 360 -5 39 -3 43 20
49 40 10 114 -9 230 -59 60 -26 113 -43 117 -39 7 7 100 528 100 558 0 3 2 6
5 6 3 0 5 -209 5 -465z m510 45 c30 -13 60 -27 66 -32 19 -14 -2 -95 -47 -186
-52 -106 -133 -188 -234 -237 -74 -37 -160 -63 -170 -53 -10 9 63 405 80 438
19 37 52 68 90 86 43 20 147 12 215 -16z"/>
<path d="M1576 1083 c-3 -10 -12 -63 -21 -118 -8 -55 -18 -112 -21 -127 -5
-25 -3 -28 20 -28 21 0 26 6 31 34 7 35 61 110 74 101 4 -2 16 -34 26 -70 16
-60 19 -65 45 -65 l28 0 -25 83 c-14 45 -27 85 -30 90 -2 4 17 32 43 62 45 53
46 55 21 55 -18 0 -43 -19 -92 -72 l-67 -73 7 55 c4 30 9 63 11 73 4 13 -1 17
-20 17 -15 0 -27 -7 -30 -17z"/>
<path d="M1875 1078 c-2 -13 -12 -66 -20 -118 -9 -52 -18 -107 -21 -122 l-6
-28 92 0 c83 0 93 2 115 25 29 28 32 70 10 102 -14 21 -14 24 5 43 27 27 26
74 -2 100 -18 16 -35 20 -95 20 -67 0 -73 -2 -78 -22z m139 -40 c19 -31 -4
-53 -59 -56 -45 -3 -47 -2 -41 20 3 13 6 31 6 41 0 15 7 18 41 15 27 -2 46 -9
53 -20z m-16 -110 c35 -35 -1 -78 -65 -78 l-45 0 6 31 c3 17 6 38 6 45 0 18
81 19 98 2z"/>
<path d="M2230 1083 c-15 -26 -130 -263 -130 -269 0 -2 10 -4 23 -4 17 0 28
10 40 36 17 34 18 35 70 32 49 -3 52 -5 57 -33 4 -24 11 -31 33 -33 33 -4 33
-7 7 133 -31 166 -26 155 -60 155 -18 0 -34 -7 -40 -17z m44 -120 l6 -43 -40
0 c-22 0 -40 2 -40 4 0 2 12 30 27 62 29 63 34 61 47 -23z"/>
<path d="M2456 1073 c-3 -16 -12 -71 -21 -123 -8 -52 -18 -105 -21 -118 -4
-21 -1 -23 23 -20 25 3 28 8 38 63 l10 60 55 0 c61 0 58 4 46 -79 -7 -44 -6
-46 18 -46 27 0 26 -4 51 150 8 52 18 105 21 118 4 21 1 23 -23 20 -26 -3 -29
-7 -37 -60 l-8 -58 -60 0 c-52 0 -59 2 -54 18 2 9 8 36 11 60 6 40 6 42 -18
42 -20 0 -27 -6 -31 -27z"/>
<path d="M2740 1080 c0 -15 7 -20 29 -20 17 0 32 -3 34 -7 3 -5 -4 -57 -14
-118 -23 -136 -24 -125 6 -125 14 0 25 1 25 3 1 19 41 230 45 237 3 6 22 10
41 10 27 0 34 4 34 20 0 19 -7 20 -100 20 -93 0 -100 -1 -100 -20z"/>
<path d="M1436 679 c-57 -45 -14 -149 57 -135 46 9 67 33 67 77 0 42 -35 79
-75 79 -12 0 -34 -9 -49 -21z"/>
<path d="M1755 675 c-46 -45 -23 -118 40 -131 57 -11 110 60 82 111 -26 50
-83 60 -122 20z"/>
<path d="M2080 680 c-61 -61 0 -163 78 -131 54 22 67 87 27 126 -30 31 -77 33
-105 5z"/>
<path d="M2406 679 c-20 -16 -26 -29 -26 -58 0 -48 28 -75 77 -75 44 0 73 32
73 79 0 38 -37 75 -75 75 -12 0 -34 -9 -49 -21z"/>
<path d="M2725 675 c-70 -69 25 -177 100 -113 38 34 39 82 1 115 -35 30 -71
29 -101 -2z"/>
</g>
</svg>
