<?xml version="1.0" standalone="no"?>
<!DOCTYPE svg PUBLIC "-//W3C//DTD SVG 20010904//EN"
 "http://www.w3.org/TR/2001/REC-SVG-20010904/DTD/svg10.dtd">
<svg version="1.0" xmlns="http://www.w3.org/2000/svg"
 width="1200.000000pt" height="1153.000000pt" viewBox="0 0 1200.000000 1153.000000"
 preserveAspectRatio="xMidYMid meet">

<g transform="translate(0.000000,1153.000000) scale(0.100000,-0.100000)"
fill="#0480b7" stroke="none">
<path d="M2750 11391 c0 -808 -281 -1520 -810 -2051 -451 -453 -1052 -759
-1775 -905 l-160 -33 3 -33 c73 -814 265 -1745 518 -2520 567 -1736 1520
-3159 2873 -4291 527 -441 1144 -845 1806 -1184 334 -171 777 -374 816 -374
50 0 844 380 1149 551 1909 1066 3323 2567 4125 4379 381 861 627 1808 686
2645 15 222 7 722 -16 905 -67 545 -204 1000 -421 1393 -509 924 -1409 1490
-2579 1621 -293 33 -508 36 -3357 36 l-2858 0 0 -139z m6095 -309 c512 -59
848 -152 1208 -334 246 -125 458 -278 652 -473 394 -393 653 -904 774 -1528
166 -851 57 -1850 -323 -2972 -229 -678 -533 -1294 -942 -1912 -500 -755
-1103 -1417 -1829 -2008 -550 -448 -1179 -852 -1843 -1184 -208 -104 -505
-241 -522 -241 -19 0 -295 128 -521 241 -1159 579 -2132 1341 -2922 2289
-1007 1207 -1684 2693 -1996 4382 -32 173 -68 404 -105 674 l-4 31 101 28
c511 141 980 379 1384 701 138 110 412 387 517 524 400 516 603 1037 681 1743
l7 58 2791 -4 c2015 -3 2820 -7 2892 -15z"/>
<path d="M3505 10688 c-2 -13 -14 -70 -26 -128 -58 -294 -153 -568 -294 -855
-165 -337 -331 -577 -602 -872 -394 -428 -985 -811 -1585 -1028 -43 -15 -78
-33 -78 -39 0 -7 13 -94 30 -194 446 -2710 1860 -4851 4085 -6189 221 -133
536 -302 776 -415 l211 -99 281 139 c823 405 1510 861 2172 1441 172 151 630
611 776 781 768 890 1299 1843 1625 2915 266 875 352 1666 253 2350 -117 813
-490 1435 -1087 1812 -308 194 -696 322 -1157 380 -130 16 -332 17 -2757 20
l-2617 4 -6 -23z m3025 -610 c7 -19 80 -660 80 -705 0 -10 73 -13 333 -13 246
0 336 -3 345 -12 17 -17 15 -42 -7 -62 -10 -9 -178 -70 -372 -135 l-354 -118
-527 -779 c-290 -428 -527 -782 -527 -786 -1 -5 80 -8 179 -8 99 0 180 -3 180
-7 0 -16 -113 -439 -119 -445 -3 -4 -139 -17 -301 -29 -162 -12 -296 -25 -298
-28 -9 -23 -92 -140 -153 -216 -246 -305 -482 -527 -632 -595 -138 -63 -297
50 -297 211 0 81 60 206 206 431 47 71 83 132 81 135 -5 4 -209 30 -1617 203
-542 66 -999 123 -1017 125 -87 15 -101 166 -18 203 20 9 393 12 1558 13
l1532 0 705 791 c388 435 706 793 708 797 1 3 -105 46 -235 95 -412 154 -393
146 -404 173 -6 16 -5 31 1 44 10 18 27 19 358 21 l347 3 96 346 c53 191 99
352 103 358 13 20 56 13 66 -11z m89 -4176 c222 -955 417 -1782 432 -1836 59
-209 133 -315 244 -351 82 -27 225 -28 278 -1 75 37 72 8 75 691 4 668 2 697
-49 739 -32 27 -43 32 -111 41 l-48 6 0 95 0 94 415 0 415 0 0 -94 0 -95 -47
-6 c-79 -10 -115 -28 -138 -65 -19 -34 -20 -53 -23 -474 l-3 -439 331 396
c357 430 347 413 311 493 -14 31 -30 47 -63 63 -24 11 -53 21 -64 21 -10 0
-29 3 -41 6 -22 6 -23 11 -23 100 l0 94 415 0 415 0 0 -94 0 -93 -67 -11 c-37
-6 -79 -20 -93 -30 -50 -38 -51 -47 -48 -726 3 -581 4 -634 21 -663 22 -41 64
-63 133 -70 l54 -6 0 -98 0 -99 -415 0 -415 0 0 99 0 98 57 6 c64 7 98 28 128
78 19 32 20 54 23 474 2 420 1 439 -15 420 -10 -12 -157 -185 -328 -384 l-310
-364 1 -58 c1 -94 44 -135 150 -146 l54 -6 0 -98 0 -99 -1020 0 -1020 0 0 99
0 98 74 6 c127 9 166 46 166 156 0 67 -27 236 -66 419 l-27 122 -367 0 -367 0
-61 -242 c-76 -297 -80 -325 -58 -381 21 -56 69 -84 162 -94 l69 -8 0 -95 0
-95 -852 -3 -853 -2 0 100 0 100 36 0 c100 0 163 41 184 119 6 25 9 211 8 521
l-3 482 -250 -621 c-137 -341 -253 -617 -256 -613 -4 4 -116 285 -248 625
-133 340 -246 628 -251 640 -6 14 -8 -178 -7 -503 2 -503 3 -527 22 -565 24
-48 66 -74 134 -82 l51 -6 0 -99 0 -98 -317 2 -318 3 0 95 0 95 48 7 c75 10
118 38 147 94 l25 48 0 621 c0 574 -1 622 -18 652 -24 44 -53 62 -126 74 l-61
11 0 94 0 94 339 0 338 0 148 -397 c82 -219 162 -436 180 -481 l31 -84 179
481 179 481 328 0 328 0 0 -94 0 -95 -47 -6 c-79 -10 -115 -28 -138 -65 -20
-34 -20 -49 -20 -670 0 -696 -1 -686 59 -718 47 -24 230 -29 297 -8 74 25 104
51 138 122 77 162 148 418 577 2087 241 939 441 1707 444 1707 3 0 187 -782
409 -1738z m2672 1542 c40 -20 62 -72 48 -112 -13 -37 -45 -60 -96 -67 -21 -3
-490 -39 -1043 -80 -553 -41 -1128 -84 -1279 -96 -150 -11 -276 -18 -279 -15
-4 5 -92 369 -92 382 0 2 610 4 1355 4 1211 0 1359 -2 1386 -16z"/>
<path d="M5871 5362 c-91 -372 -166 -683 -169 -689 -3 -10 62 -13 307 -13
l311 0 -5 23 c-3 12 -64 312 -135 667 -72 355 -134 655 -138 667 -5 16 -58
-188 -171 -655z"/>
</g>
</svg>
